Coordinates
version=1
nRows=12
nColumns=19
inDegrees=yes

Units are S.I. units (second, meters, Newtons, ...)
If the header above contains a line with 'inDegrees', this indicates whether rotational values are in degrees (yes) or radians (no).

endheader
time	pelvis_to_ground_rx	pelvis_to_ground_ry	pelvis_to_ground_rz	pelvis_to_ground_tx	pelvis_to_ground_ty	pelvis_to_ground_tz	left_hip_abduction	left_hip_rotation	left_hip_flexion	left_knee_flexion	left_ankle_flexion	left_subtalar_angle	right_hip_abduction	right_hip_rotation	right_hip_flexion	right_knee_flexion	right_ankle_flexion	right_subtalar_angle
      0.29000000	     98.72037860	      6.36922652	     -8.01039187	     -1.63555052	     -0.68748334	      0.73535044	    -13.51667227	    -10.07945411	      9.94713451	    -24.21438152	      4.80090109	     -8.36042077	      1.85011853	    -14.14132653	     34.06031691	    -58.16748136	      0.36622964	    -12.70538104
      0.30000000	     98.74027850	      6.89490599	     -7.68592326	     -1.62562348	     -0.68714769	      0.73474761	    -13.55486280	    -10.09700900	      8.82257908	    -24.36661186	      4.79175768	     -8.27742642	      1.57230178	    -13.95147477	     35.42716858	    -56.78673998	      0.37573234	    -12.66621806
      0.31000000	     98.75724350	      7.51535340	     -7.35351777	     -1.61562378	     -0.68690224	      0.73400985	    -13.57597033	    -10.18505543	      7.68605773	    -24.55108447	      4.84351678	     -8.15466702	      1.23427552	    -13.87253389	     36.63185594	    -55.12870942	      0.27788751	    -12.49743324
      0.32000000	     98.80977303	      8.18301270	     -7.01852068	     -1.60547863	     -0.68671120	      0.73315109	    -13.62517004	    -10.31108478	      6.50147260	    -24.69446215	      5.01472722	     -7.92500625	      0.80194935	    -13.88419358	     37.66774343	    -53.22735240	     -0.04338838	    -12.03314180
      0.33000000	     98.77094210	      8.88432974	     -6.70098169	     -1.59516873	     -0.68665009	      0.73220773	    -13.54574009	    -10.21045822	      5.45222938	    -25.02205371	      5.68054276	     -6.92634987	      0.41447393	    -13.86228518	     38.51139082	    -51.04056756	     -0.11667586	    -10.79411517
      0.34000000	     98.72501466	      9.62261183	     -6.36904077	     -1.58461571	     -0.68665874	      0.73118997	    -13.45775902	    -10.33611073	      4.30785569	    -25.28212151	      5.84666360	     -6.80772191	     -0.02560330	    -13.86143657	     39.11271402	    -48.61968230	     -0.66087546	    -10.20071837
      0.35000000	     98.65438542	     10.35500237	     -6.02419026	     -1.57376553	     -0.68673364	      0.73009703	    -13.34530570	    -10.51162852	      3.13239972	    -25.56021522	      6.03591714	     -6.66116568	     -0.49985363	    -13.80638800	     39.46236101	    -46.00538457	     -1.22022147	     -9.54221977
      0.36000000	     98.55719188	     11.11988056	     -5.60897322	     -1.56256022	     -0.68688197	      0.72888591	    -13.21716509	    -10.74413568	      1.89246581	    -25.92565276	      6.17009704	     -6.55001308	     -0.98706566	    -13.79115484	     39.51092100	    -43.27352819	     -1.70278165	     -9.00833856
      0.37000000	     98.41787728	     11.83410221	     -5.20636964	     -1.55097250	     -0.68709230	      0.72759484	    -13.04207701	    -10.93810563	      0.70320536	    -26.39019052	      6.34185723	     -6.43910955	     -1.47792167	    -13.64129958	     39.33171794	    -40.44582400	     -2.44254945	     -8.25489547
      0.38000000	     98.24136872	     12.51174747	     -4.80927396	     -1.53896225	     -0.68737404	      0.72619908	    -12.82435435	    -11.09804637	     -0.41996923	    -27.00631932	      6.47403159	     -6.34076814	     -1.96593188	    -13.37511505	     38.93076794	    -37.60202346	     -3.14462097	     -7.55087208
      0.39000000	     98.02821943	     13.14213704	     -4.40460132	     -1.52651127	     -0.68771203	      0.72468602	    -12.56812189	    -11.20777951	     -1.47746609	    -27.79445965	      6.56422240	     -6.24583577	     -2.44159165	    -12.99224074	     38.31825698	    -34.82010639	     -3.87598923	     -6.85584730
      0.40000000	     97.78078943	     13.70778458	     -4.01010734	     -1.51360209	     -0.68810609	      0.72305121	    -12.26270000	    -11.22063160	     -2.42962672	    -28.77618890	      6.57897975	     -6.17076621	     -2.89982542	    -12.45554594	     37.53485721	    -32.17558162	     -4.49734880	     -6.29254191
